<svg id="Layer_1" data-name="Layer 1" xmlns="http://www.w3.org/2000/svg" xmlns:xlink="http://www.w3.org/1999/xlink" viewBox="0 0 365 88.36"><defs><style>.cls-1{fill:none;}.cls-2{fill:#3f3f40;}.cls-3{clip-path:url(#clip-path);}.cls-4{fill:#009cd9;}.cls-5{fill:#74bb11;}.cls-6{fill:#eb2084;}</style><clipPath id="clip-path" transform="translate(-67.5 -210.02)"><polygon id="_Clipping_Path_" data-name="&lt;Clipping Path&gt;" class="cls-1" points="229.96 212.85 202.04 251.43 229 288.31 209.27 288.31 192.15 264.82 175.17 288.31 155.58 288.31 182.4 251.43 154.46 212.85 174.22 212.85 192.15 237.9 210.21 212.85 229.96 212.85"/></clipPath></defs><title>axure</title><g id="_Group_" data-name="&lt;Group&gt;"><path id="_Compound_Path_" data-name="&lt;Compound Path&gt;" class="cls-2" d="M129.68,287.64v-9.09a30.84,30.84,0,0,1-9.29,6.93,33.47,33.47,0,0,1-14.16,3,39.78,39.78,0,0,1-16.47-3.25,36.39,36.39,0,0,1-19.69-20.88,40.42,40.42,0,0,1-2.57-14.19,41.84,41.84,0,0,1,2.37-13.66,37.89,37.89,0,0,1,7.35-12.31,37.86,37.86,0,0,1,29-13,36.45,36.45,0,0,1,14.22,3.11c5,2.06,9.26,6.91,9.26,6.91v-9.06h15.75v75.51ZM129.42,250a23.81,23.81,0,0,0-1.81-9.41,22,22,0,0,0-5-7.3,22.41,22.41,0,0,0-7.37-4.73,24.18,24.18,0,0,0-9.07-1.7A22.17,22.17,0,0,0,96.12,229a23.26,23.26,0,0,0-7.2,5.55,22.81,22.81,0,0,0-4.29,7.48A24.85,24.85,0,0,0,83.24,250a22.26,22.26,0,0,0,1.69,8.53,23,23,0,0,0,12,12.32,21.84,21.84,0,0,0,9.19,1.93,23.08,23.08,0,0,0,9.19-1.81,23.54,23.54,0,0,0,7.37-4.91,22.93,22.93,0,0,0,5-7.24A21.79,21.79,0,0,0,129.42,250Z" transform="translate(-67.5 -210.02)"/><path id="_Path_" data-name="&lt;Path&gt;" class="cls-2" d="M252.39,212.33v40c0,4.49.12,8.65,2.3,12.12,3.15,5,8,8.56,14.44,8.56a17.51,17.51,0,0,0,16-10.36c1.2-2.86,1.43-6.66,1.43-10.72V212.33h15.51v75.46h-15.6v-6.18a13.51,13.51,0,0,1-5.33,4.46,26.18,26.18,0,0,1-12.07,2.76,34.64,34.64,0,0,1-11.82-1.94,34.3,34.3,0,0,1-10.1-5.89,26.48,26.48,0,0,1-7.74-10.66c-1.7-4.48-2.8-8-2.8-18v-40Z" transform="translate(-67.5 -210.02)"/><path id="_Path_2" data-name="&lt;Path&gt;" class="cls-2" d="M319.22,287.62v-75.2l15.84,0v6.72s1.15-2.78,8.9-5.35c5.19-1.72,12.37-1.37,13.27-1.37v15.92c-1.08,0-12.2-.66-17.91,5.34-2.72,2.85-4,5.58-4.22,13.2v40.71Z" transform="translate(-67.5 -210.02)"/><path id="_Compound_Path_2" data-name="&lt;Compound Path&gt;" class="cls-2" d="M372.88,259c.91,3.59,7.53,13.84,20.08,14.64a19.56,19.56,0,0,0,15.59-5.6L426,271.56c-3.88,6.17-14.47,15.41-27.11,16.56-17.58,1.61-28.91-6.42-35.13-14.76a39.66,39.66,0,0,1-5-38.1A39.21,39.21,0,0,1,367,222.83a38.12,38.12,0,0,1,27.21-11.15,37.22,37.22,0,0,1,14.52,2.89,39.08,39.08,0,0,1,12.21,8,38.39,38.39,0,0,1,8.42,12.1,36.78,36.78,0,0,1,3.12,15.18c0,1.25-.05,2.64-.14,4.16a49.84,49.84,0,0,1-.78,5Zm42.68-15.37c-.18-2.68-7.28-16.12-21.34-16.12-13.88,0-21.41,13.44-21.59,16.12Z" transform="translate(-67.5 -210.02)"/><g id="_Clip_Group_" data-name="&lt;Clip Group&gt;"><g class="cls-3"><polygon id="_Path_3" data-name="&lt;Path&gt;" class="cls-4" points="162.46 2.83 134.54 41.41 161.5 78.3 141.77 78.3 124.65 54.8 107.67 78.3 88.08 78.3 114.9 41.41 86.96 2.83 106.72 2.83 124.65 27.88 142.71 2.83 162.46 2.83"/><rect id="_Path_4" data-name="&lt;Path&gt;" class="cls-5" x="127.8" y="48.75" width="34.92" height="31.02"/><rect id="_Path_5" data-name="&lt;Path&gt;" class="cls-6" x="121.89" y="65.45" width="24.74" height="22.92"/><rect id="_Path_6" data-name="&lt;Path&gt;" class="cls-5" x="100.48" y="0.34" width="41.96" height="38.6"/><rect id="_Path_7" data-name="&lt;Path&gt;" class="cls-4" x="86.45" width="14.21" height="25.94"/><rect id="_Path_8" data-name="&lt;Path&gt;" class="cls-6" x="93.13" y="8.99" width="12.67" height="12.24"/><rect id="_Path_9" data-name="&lt;Path&gt;" class="cls-4" x="142.57" y="1.51" width="24.74" height="22.92"/><rect id="_Path_10" data-name="&lt;Path&gt;" class="cls-6" x="124.2" y="22.63" width="24.74" height="22.86"/><rect id="_Path_11" data-name="&lt;Path&gt;" class="cls-6" x="87.73" y="59.16" width="27.44" height="25.41"/><rect id="_Path_12" data-name="&lt;Path&gt;" class="cls-4" x="101.71" y="70.36" width="10.51" height="10.16"/><rect id="_Path_13" data-name="&lt;Path&gt;" class="cls-5" x="105.22" y="41.38" width="15.65" height="14.82"/></g></g></g></svg>